<svg width="23" height="20" viewBox="0 0 23 20" fill="none" xmlns="http://www.w3.org/2000/svg">
<path d="M7.30623 3.02857C7.30623 1.4 8.3291 0.8 10.2287 0.285714V0H0V0.285714C1.89962 0.8 2.92249 1.4 2.92249 3.02857V16.9714C2.92249 18.6 1.89962 19.2 0 19.7143V20H10.2287V19.7143C8.3291 19.2 7.30623 18.6 7.30623 16.9714V9.62857L8.85515 8.48571L14.4663 17.1714C15.3723 18.5429 14.6709 19.2 12.7713 19.7143V20H23V19.7143C21.1004 19.2 20.0191 17.9714 19.3177 16.9143L12.1283 6.05714L15.2262 3.74286C16.9212 2.48571 18.6455 1.22857 21.1881 0.285714V0H12.5667V0.285714C15.8399 0.942857 15.5184 2 12.9759 4.2L7.30623 9.11429V3.02857Z" fill="#A5AEFF"/>
</svg>
