<svg width="112" height="16" viewBox="0 0 112 16" fill="none" xmlns="http://www.w3.org/2000/svg">
<path d="M3.16242 12.88C3.16242 14.02 2.46242 14.44 1.16242 14.8V15H8.16242V14.8C6.86242 14.44 6.16242 14.02 6.16242 12.88V9.92L9.04242 13.02C9.82242 13.88 10.0024 14.44 8.70242 14.8V15H15.1424V14.8C14.0624 14.52 13.3224 13.9 12.3624 12.84L8.24242 8.3L9.38242 7.42C10.5424 6.54 11.7224 5.66 13.4624 5V4.8H7.56242V5C9.80242 5.46 9.58242 6.2 7.84242 7.74L6.16242 9.24V3.74C6.16242 2.6 6.30242 1.14 6.42242 0.799999L6.16242 0.619999L0.982422 2.44V2.62C2.48242 2.62 3.16242 3.08 3.16242 4.1V12.88ZM18.3187 12.88C18.3187 14.02 17.6187 14.44 16.3187 14.8V15H23.3187V14.8C22.0187 14.44 21.3187 14.02 21.3187 12.88V3.74C21.3187 2.6 21.4587 1.14 21.5787 0.799999L21.3187 0.619999L16.1387 2.44V2.62C17.6387 2.62 18.3187 3.08 18.3187 4.1V12.88ZM24.5605 7.78C25.7205 7 26.7205 6.62 27.7005 6.62C29.3605 6.62 30.7605 8 30.7605 9.64V10.06C29.9005 9.74 29.0005 9.58 28.1405 9.58C25.7005 9.58 23.5605 10.78 23.5605 12.82C23.5605 14.34 24.7605 15.2 26.5805 15.2C28.7405 15.2 30.1005 14 30.7805 12.9C30.9405 14.58 31.7205 15.22 32.7005 15.22C33.7405 15.22 35.0005 14.5 35.9405 13.56V13.38C34.4405 13.38 33.7605 13.44 33.7605 11.9V9.28C33.7605 6.64 31.9005 4.8 29.2405 4.8C27.6605 4.8 25.7405 5.9 24.5605 7.5V7.78ZM30.7605 12.36C30.3405 12.98 29.6005 13.58 28.3605 13.58C27.3005 13.58 26.5805 13.12 26.5805 12.12C26.5805 10.86 27.7605 10.24 29.1805 10.24C29.6805 10.24 30.2205 10.32 30.7605 10.48V12.36ZM39.1195 12.88C39.1195 14.02 38.4195 14.44 37.1195 14.8V15H44.1195V14.8C42.8195 14.44 42.1195 14.02 42.1195 12.88V7.62C42.9195 7.2 43.6595 7 44.3795 7C45.8195 7 46.5395 7.92 46.5395 8.94H46.7395L47.5995 5.72C47.1195 5 46.1595 4.8 45.6395 4.8C44.4195 4.8 43.1795 5.66 42.1395 6.78C42.1795 5.9 42.2995 5.04 42.3795 4.8L42.1195 4.62L36.9395 6.44V6.62C38.4395 6.62 39.1195 7.08 39.1195 8.1V12.88ZM49.8812 12.88C49.8812 14.02 49.1812 14.44 47.8812 14.8V15H54.8812V14.8C53.5812 14.44 52.8812 14.02 52.8812 12.88V9.92L55.7612 13.02C56.5412 13.88 56.7212 14.44 55.4212 14.8V15H61.8612V14.8C60.7812 14.52 60.0412 13.9 59.0812 12.84L54.9612 8.3L56.1012 7.42C57.2612 6.54 58.4412 5.66 60.1812 5V4.8H54.2812V5C56.5212 5.46 56.3012 6.2 54.5612 7.74L52.8812 9.24V3.74C52.8812 2.6 53.0212 1.14 53.1412 0.799999L52.8812 0.619999L47.7012 2.44V2.62C49.2012 2.62 49.8812 3.08 49.8812 4.1V12.88ZM70.7773 8.1V12.72C69.9573 13.16 69.1973 13.38 68.4573 13.38C67.0173 13.38 66.3773 12.92 66.3773 11.9V7.74C66.3773 6.6 66.5173 5.14 66.6373 4.8L66.3773 4.62L61.1973 6.44V6.62C62.6973 6.62 63.3773 7.08 63.3773 8.1V12.26C63.3773 14.34 64.4173 15.2 66.9173 15.2C68.1573 15.2 69.5973 14.52 70.7373 13.46C70.6773 14.26 70.5973 14.98 70.5173 15.2L70.7773 15.38L75.9573 13.56V13.38C74.4573 13.38 73.7773 12.92 73.7773 11.9V7.74C73.7773 6.6 73.9173 5.14 74.0373 4.8L73.7773 4.62L68.5973 6.44V6.62C70.0973 6.62 70.7773 7.08 70.7773 8.1ZM78.2405 12.88C78.2405 14.02 77.5405 14.44 76.2405 14.8V15H83.2405V14.8C81.9405 14.44 81.2405 14.02 81.2405 12.88V9.92L84.1205 13.02C84.9005 13.88 85.0805 14.44 83.7805 14.8V15H90.2205V14.8C89.1405 14.52 88.4005 13.9 87.4405 12.84L83.3205 8.3L84.4605 7.42C85.6205 6.54 86.8005 5.66 88.5405 5V4.8H82.6405V5C84.8805 5.46 84.6605 6.2 82.9205 7.74L81.2405 9.24V3.74C81.2405 2.6 81.3805 1.14 81.5005 0.799999L81.2405 0.619999L76.0605 2.44V2.62C77.5605 2.62 78.2405 3.08 78.2405 4.1V12.88ZM93.3968 12.88C93.3968 14.02 92.6968 14.44 91.3968 14.8V15H98.3968V14.8C97.0968 14.44 96.3968 14.02 96.3968 12.88V3.74C96.3968 2.6 96.5368 1.14 96.6568 0.799999L96.3968 0.619999L91.2168 2.44V2.62C92.7168 2.62 93.3968 3.08 93.3968 4.1V12.88ZM99.6387 7.78C100.799 7 101.799 6.62 102.779 6.62C104.439 6.62 105.839 8 105.839 9.64V10.06C104.979 9.74 104.079 9.58 103.219 9.58C100.779 9.58 98.6387 10.78 98.6387 12.82C98.6387 14.34 99.8387 15.2 101.659 15.2C103.819 15.2 105.179 14 105.859 12.9C106.019 14.58 106.799 15.22 107.779 15.22C108.819 15.22 110.079 14.5 111.019 13.56V13.38C109.519 13.38 108.839 13.44 108.839 11.9V9.28C108.839 6.64 106.979 4.8 104.319 4.8C102.739 4.8 100.819 5.9 99.6387 7.5V7.78ZM105.839 12.36C105.419 12.98 104.679 13.58 103.439 13.58C102.379 13.58 101.659 13.12 101.659 12.12C101.659 10.86 102.839 10.24 104.259 10.24C104.759 10.24 105.299 10.32 105.839 10.48V12.36Z" fill="#023D19"/>
</svg>
