<svg width="317" height="317" viewBox="0 0 317 317" fill="none" xmlns="http://www.w3.org/2000/svg">
<path d="M158.5 304.4C157.183 287.836 153.276 271.553 146.897 256.153C138.906 236.863 127.194 219.335 112.43 204.57C97.6655 189.806 80.1375 178.094 60.8467 170.103C45.4468 163.724 29.1643 159.817 12.5998 158.5C29.1643 157.183 45.4468 153.276 60.8467 146.897C80.1374 138.906 97.6655 127.194 112.43 112.43C127.194 97.6655 138.906 80.1375 146.897 60.8467C153.276 45.4468 157.183 29.1643 158.5 12.5998C159.817 29.1643 163.724 45.4468 170.103 60.8467C178.094 80.1375 189.805 97.6655 204.57 112.43C219.335 127.195 236.863 138.906 256.153 146.897C271.553 153.276 287.836 157.183 304.4 158.5C287.836 159.817 271.553 163.724 256.153 170.103C236.863 178.094 219.335 189.806 204.57 204.57C189.805 219.335 178.094 236.863 170.103 256.153C163.724 271.553 159.817 287.836 158.5 304.4Z" stroke="#002D9F"/>
</svg>
