<svg width="419" height="419" viewBox="0 0 419 419" fill="none" xmlns="http://www.w3.org/2000/svg">
<path d="M209.5 404.517C207.936 381.896 202.717 359.644 194.015 338.636C183.461 313.158 167.993 290.008 148.492 270.508C128.992 251.007 105.842 235.539 80.3635 224.985C59.3556 216.284 37.1041 211.064 14.483 209.5C37.1041 207.936 59.3556 202.716 80.3635 194.015C105.842 183.461 128.992 167.993 148.492 148.492C167.993 128.992 183.461 105.842 194.015 80.3635C202.716 59.3556 207.936 37.1041 209.5 14.483C211.064 37.1041 216.284 59.3556 224.985 80.3635C235.539 105.842 251.007 128.992 270.508 148.492C290.008 167.993 313.158 183.461 338.636 194.015C359.644 202.716 381.896 207.936 404.517 209.5C381.896 211.064 359.644 216.283 338.636 224.985C313.158 235.539 290.008 251.007 270.508 270.508C251.007 290.008 235.539 313.158 224.985 338.636C216.284 359.644 211.064 381.896 209.5 404.517Z" stroke="#023D19"/>
</svg>
