<svg width="72" height="117" viewBox="0 0 72 117" fill="none" xmlns="http://www.w3.org/2000/svg">
<path d="M2.84211 96.5802H26.6617L25.0376 95.0625H16.1053V55.3266L28.9624 68.434C36.6767 62.5012 40.1955 57.9481 41.9549 55.8785C48.1805 48.4281 54.1353 44.5649 58.6015 44.5649C68.0752 44.5649 71.594 61.5354 60.0902 98.0979C56.8421 108.584 45.7444 113.689 36.6767 116.172L37.0827 117L62.6617 111.895C76.4662 66.5024 70.9173 41.5295 59.1429 41.5295C55.3534 41.5295 50.8872 44.1509 46.1504 49.5318C42.0902 53.9469 35.3233 60.4316 28.8271 60.4316C22.7368 60.4316 16.9173 56.0165 19.218 49.1179L62.1203 1.37972H70.5113L72 0H49.9398L48.3158 1.37972C54.6767 2.20755 53.3233 6.3467 51.4286 9.52005L16.1053 50.0837V11.8656C16.1053 11.8656 15.9699 1.51769 25.5789 1.51769L23.9549 0H0L1.62406 1.37972H10.5564V87.0601C10.015 90.3715 7.98496 95.0625 1.21804 95.0625L2.84211 96.5802Z" fill="black"/>
</svg>
