<svg width="110" height="96" viewBox="0 0 110 96" fill="none" xmlns="http://www.w3.org/2000/svg">
<path d="M34.9428 14.5371C34.9428 6.72 39.8348 3.84 48.92 1.37143V0H0V1.37143C9.08513 3.84 13.9771 6.72 13.9771 14.5371V81.4629C13.9771 89.28 9.08513 92.16 0 94.6286V96H48.92V94.6286C39.8348 92.16 34.9428 89.28 34.9428 81.4629V46.2171L42.3507 40.7314L69.1868 82.4229C73.5197 89.0057 70.1652 92.16 61.08 94.6286V96H110V94.6286C100.915 92.16 95.7433 86.2629 92.3888 81.1886L58.0051 29.0743L72.8208 17.9657C80.9276 11.9314 89.1741 5.89715 101.334 1.37143V0H60.1017V1.37143C75.756 4.52571 74.2186 9.6 62.0584 20.16L34.9428 43.7486V14.5371Z" fill="black"/>
</svg>
