<svg width="24" height="39" viewBox="0 0 24 39" fill="none" xmlns="http://www.w3.org/2000/svg">
<path d="M0.947369 32.1934H8.88722L8.34586 31.6875H5.36842V18.4422L9.65413 22.8113C12.2256 20.8337 13.3985 19.316 13.985 18.6262C16.0602 16.1427 18.0451 14.855 19.5338 14.855C22.6917 14.855 23.8647 20.5118 20.0301 32.6993C18.9474 36.1946 15.2481 37.8962 12.2256 38.7241L12.3609 39L20.8872 37.2983C25.4887 22.1675 23.6391 13.8432 19.7143 13.8432C18.4511 13.8432 16.9624 14.717 15.3835 16.5106C14.0301 17.9823 11.7744 20.1439 9.60902 20.1439C7.57895 20.1439 5.6391 18.6722 6.40601 16.3726L20.7068 0.459905H23.5038L24 0H16.6466L16.1053 0.459905C18.2256 0.735851 17.7744 2.11557 17.1429 3.17335L5.36842 16.6946V3.95519C5.36842 3.95519 5.32331 0.505898 8.52632 0.505898L7.98496 0H0L0.541353 0.459905H3.5188V29.02C3.33835 30.1238 2.66165 31.6875 0.406015 31.6875L0.947369 32.1934Z" fill="#023D19"/>
</svg>
